# xmcd
#
# Track frame offsets:
#	150
#	14135
#	28636
#	43167
#	54721
#	66652
#	78739
#	92296
#	103747
#	116755
#	130270
#	145529
#	158470
#	169339
#	182970
#	193020
#	205850
#
# Disc length: 2918 seconds
#
# Revision: 0
# Processed by: cddbd v1.5.1PL0 Copyright (c) Steve Scherf et al.
# Submitted via: audiograbber 1.83.01
#
DISCID=f70b6411
DTITLE=Glen Campbell - Country Karaoke Classics
DYEAR=1900
DGENRE=
TTITLE0=Gentle on my mind
TTITLE1=Wichita Lineman
TTITLE2=Rhinestone Cowboy
TTITLE3=Im so lonesome I could Cry
TTITLE4=I love how you love me
TTITLE5=its only make believe
TTITLE6=Southern nights
TTITLE7=Try a little tenderness
TTITLE8=I wanna live
TTITLE9=Turn around and look at me
TTITLE10=Faithless love
TTITLE11=Dreams of the everyday housewife
TTITLE12=My elusive butterfly
TTITLE13=She gone gone gone
TTITLE14=Let it be me
TTITLE15=Galvaston
TTITLE16=By the time I get to phoenix
EXTD=
EXTT0=
EXTT1=
EXTT2=
EXTT3=
EXTT4=
EXTT5=
EXTT6=
EXTT7=
EXTT8=
EXTT9=
EXTT10=
EXTT11=
EXTT12=
EXTT13=
EXTT14=
EXTT15=
EXTT16=
PLAYORDER=
